<svg xmlns="http://www.w3.org/2000/svg" viewBox="0 0 59.8 67.66"><defs><style>.a{fill:#d2d2d2;}</style></defs><title>dropcap-back</title><rect class="a" y="48.54" width="2.95" height="2.95"/><rect class="a" x="14.11" y="48.54" width="2.95" height="2.95"/><rect class="a" y="16.18" width="2.95" height="2.95"/><rect class="a" x="14.11" y="16.18" width="2.95" height="2.95"/><rect class="a" y="32.36" width="2.95" height="2.95"/><rect class="a" x="14.11" y="32.36" width="2.95" height="2.95"/><rect class="a" x="28.37" y="48.54" width="2.95" height="2.95"/><rect class="a" x="28.37" y="16.18" width="2.95" height="2.95"/><rect class="a" x="28.37" y="32.36" width="2.95" height="2.95"/><rect class="a" x="42.55" y="48.54" width="2.95" height="2.95"/><rect class="a" x="42.55" y="16.18" width="2.95" height="2.95"/><rect class="a" x="42.55" y="32.36" width="2.95" height="2.95"/><rect class="a" x="56.73" y="48.54" width="2.95" height="2.95"/><rect class="a" x="56.73" y="16.18" width="2.95" height="2.95"/><rect class="a" x="56.73" y="32.36" width="2.95" height="2.95"/><rect class="a" width="2.95" height="2.95"/><rect class="a" x="14.11" width="2.95" height="2.95"/><rect class="a" x="28.37" width="2.95" height="2.95"/><rect class="a" x="42.55" width="2.95" height="2.95"/><rect class="a" x="56.73" width="2.95" height="2.95"/><rect class="a" y="64.71" width="2.95" height="2.95"/><rect class="a" x="14.11" y="64.71" width="2.95" height="2.95"/><rect class="a" x="28.42" y="64.71" width="2.95" height="2.95"/><rect class="a" x="42.64" y="64.71" width="2.95" height="2.95"/><rect class="a" x="56.85" y="64.71" width="2.95" height="2.95"/></svg>